<?xml version="1.0" standalone="no"?>
<!DOCTYPE svg PUBLIC "-//W3C//DTD SVG 20010904//EN"
 "http://www.w3.org/TR/2001/REC-SVG-20010904/DTD/svg10.dtd">
<svg version="1.0" xmlns="http://www.w3.org/2000/svg"
 width="388.000000pt" height="118.000000pt" viewBox="0 0 388.000000 118.000000"
 preserveAspectRatio="xMidYMid meet">

<g transform="translate(0.000000,118.000000) scale(0.100000,-0.100000)"
fill="#2a75bb" fill-rule="nonzero" stroke="none">
<path d="M2864 1170 c-88 -27 -144 -151 -111 -247 l14 -41 -51 5 c-46 5 -55 2
-84 -22 -18 -15 -32 -34 -32 -43 -1 -10 -10 0 -21 20 -10 21 -29 42 -40 49
-14 7 -80 10 -187 9 -292 -4 -352 -1 -352 13 0 17 -117 198 -139 214 -37 28
-87 15 -219 -58 -130 -73 -149 -87 -159 -127 -8 -32 2 -60 41 -119 19 -29 32
-54 28 -57 -4 -2 -35 0 -69 6 -51 8 -67 6 -93 -7 -18 -9 -35 -14 -38 -10 -3 3
-11 85 -17 182 l-11 176 -32 28 c-19 17 -44 29 -60 29 -36 0 -261 -96 -289
-123 -15 -14 -28 -48 -38 -96 -9 -41 -17 -76 -18 -77 -1 0 -27 -4 -57 -7 l-56
-7 4 34 c6 48 -12 96 -54 145 -104 121 -285 131 -579 33 -104 -35 -111 -39
-129 -75 l-18 -38 33 -92 c51 -145 69 -178 102 -192 28 -12 35 -28 109 -241
88 -253 103 -279 166 -279 29 0 53 11 105 48 l66 48 43 -31 c87 -63 213 -75
315 -30 25 11 47 20 49 20 2 0 4 -16 4 -35 0 -43 23 -90 49 -105 11 -5 81 -10
156 -10 l137 0 29 29 c16 16 29 39 29 50 0 12 2 21 5 21 3 0 38 -24 78 -53 92
-69 108 -77 149 -77 47 0 88 43 88 91 l0 35 86 11 c60 8 109 23 159 46 l73 35
13 -40 c23 -70 42 -78 196 -78 74 0 143 5 154 10 14 8 27 7 48 -5 22 -11 62
-15 154 -15 105 0 128 3 147 18 22 18 23 17 55 -15 32 -32 35 -33 122 -33 63
0 95 -4 109 -15 14 -11 52 -14 160 -15 136 0 142 1 168 25 14 13 26 33 26 44
0 11 3 22 8 24 4 3 47 -24 96 -59 73 -53 96 -64 128 -64 31 0 46 6 66 28 19
20 40 31 72 35 66 9 90 40 90 120 1 185 -24 624 -36 650 -11 23 -10 34 2 70
23 64 11 120 -38 173 -71 78 -182 94 -255 38 -87 -66 -101 -214 -28 -288 14
-14 13 -17 -13 -30 -16 -8 -35 -22 -42 -31 -13 -16 -80 -48 -86 -42 -2 2 -8
77 -14 167 -6 91 -16 178 -22 193 -12 30 -54 57 -88 57 -11 0 -48 -12 -82 -26
l-61 -26 -47 26 c-54 30 -120 40 -166 26z m-1607 -326 c8 -126 16 -230 18
-232 2 -2 38 15 79 38 76 42 77 42 144 33 66 -8 68 -8 115 24 82 55 186 76
265 54 l33 -10 -7 35 -6 35 128 -3 129 -3 45 -122 44 -122 22 60 22 60 -23 57
c-13 31 -20 61 -16 65 4 4 63 6 130 5 l123 -3 33 -90 c62 -170 51 -166 100
-40 l43 110 128 0 c114 0 135 3 177 23 50 25 67 59 23 48 -14 -3 -28 -2 -31 4
-3 5 -20 10 -36 10 -37 0 -85 24 -99 49 -23 44 -5 126 34 153 6 4 31 8 55 8
38 0 49 -5 81 -38 l36 -39 89 39 c58 25 91 34 95 27 4 -6 13 -114 20 -240 7
-126 15 -229 18 -229 3 0 38 18 78 40 40 22 86 40 102 40 22 0 30 6 38 27 8
23 28 35 119 74 61 26 114 43 118 39 7 -6 35 -496 37 -622 0 -28 0 -28 -70
-28 l-70 0 0 -36 c0 -27 -4 -35 -14 -31 -8 3 -80 53 -160 111 -80 58 -148 106
-150 106 -2 0 -2 -43 1 -95 l6 -95 -117 0 c-109 0 -116 1 -116 20 0 19 -7 20
-109 20 l-108 0 -7 61 c-3 34 -6 119 -6 188 l-1 126 -67 -165 c-37 -91 -71
-171 -75 -178 -9 -13 -193 -17 -213 -4 -6 4 -24 41 -39 82 l-28 74 -35 -77
-35 -78 -110 3 -109 3 -82 207 -81 207 -79 -95 c-43 -52 -76 -97 -73 -100 6
-6 70 54 85 81 12 19 14 18 48 -20 80 -89 88 -103 74 -130 -18 -34 -93 -80
-163 -100 -41 -12 -85 -16 -148 -13 l-88 3 6 -73 c4 -49 2 -72 -5 -72 -6 0
-75 46 -154 103 -79 57 -149 107 -157 111 -11 7 -13 -8 -10 -85 l4 -94 -111
-3 -111 -3 -7 38 c-3 21 -6 77 -6 124 0 47 -3 88 -6 91 -3 3 -26 -16 -51 -43
-25 -26 -68 -60 -96 -74 -90 -44 -213 -30 -269 32 -62 68 -83 227 -41 308 25
49 96 116 150 143 81 42 180 36 257 -15 l39 -25 -6 38 c-4 22 -7 56 -7 77 0
38 0 38 -31 32 l-32 -7 7 53 c4 29 11 60 16 68 11 20 222 111 233 101 5 -4 16
-111 24 -236z m2423 229 c14 -9 30 -24 37 -33 28 -35 6 -127 -36 -150 -28 -14
-77 -12 -110 5 -56 28 -66 122 -20 171 27 29 92 33 129 7z m-1813 -96 c28 -45
49 -85 45 -89 -15 -14 -284 -59 -296 -49 -6 5 -22 28 -34 49 l-22 40 117 65
c65 37 123 66 128 66 6 0 33 -36 62 -82z m-1274 59 c18 -7 47 -30 66 -51 30
-35 33 -43 29 -87 -6 -60 -53 -132 -154 -232 l-71 -71 38 -135 c21 -73 38
-134 36 -135 -1 -1 -28 -21 -60 -44 -32 -24 -64 -40 -70 -38 -7 3 -52 121
-101 263 -49 143 -91 261 -93 263 -2 3 -9 -1 -15 -7 -7 -7 -17 -12 -23 -12
-11 0 -85 182 -85 207 0 9 161 63 245 82 64 14 221 13 258 -3z"/>
<path d="M818 631 c-35 -40 -35 -65 -3 -97 37 -37 91 -31 122 15 29 43 29 57
1 37 -27 -19 -62 -21 -76 -3 -6 6 -12 28 -14 47 l-3 34 -27 -33z"/>
<path d="M1700 592 c-14 -11 -23 -32 -26 -62 l-5 -45 31 35 c17 19 40 47 51
63 l20 27 -24 0 c-14 0 -35 -8 -47 -18z"/>
<path d="M3467 521 c-32 -25 -58 -50 -58 -54 0 -9 110 -97 121 -97 5 0 3 152
-3 186 -1 6 -28 -10 -60 -35z"/>
<path d="M1453 507 c-23 -18 -42 -35 -43 -39 0 -10 85 -70 87 -61 5 23 8 133
4 132 -3 0 -25 -15 -48 -32z"/>
<path d="M416 843 c-15 -4 -17 -11 -12 -46 4 -23 9 -43 11 -46 7 -7 48 34 68
68 l18 31 -33 -1 c-18 -1 -41 -3 -52 -6z"/>
</g>
</svg>
